<svg xmlns="http://www.w3.org/2000/svg" width="1229.048" height="1230.04" xmlns:v="https://vecta.io/nano"><circle fill="#e30c19" cx="615.028" cy="615.02" r="609.02"/><circle fill="#005091" cx="615.028" cy="615.02" r="587.778"/><circle fill="#fff" cx="615.028" cy="615.02" r="424.062"/><path fill="#005091" d="M614.628 436.301l-51.864 139.814h-141.22l44.132 36.086H338.515s6.289-9.288 12.813-24.604c5.855-13.748 11.23-34.512 8.121-57.566-5.468-40.539-16.559-61.55-32.181-87.169l75.922-90.918s52.645 23.745 80.92 27.494c26.939 3.572 44.053 5.78 76.547-8.748 31.234-13.965 55.457-25.463 106.227-.938 51.6 24.926 93.888 8.905 159.342-17.809l76.13 90.658s-28.718 41.736-32.598 92.324c-2.12 27.645 6.303 48.915 13.229 62.276 4.427 8.537 8.226 14.583 8.226 14.583H764.154l43.402-35.669H666.571l-51.943-139.814z"/><path fill="#e30c19" d="M330.938 625.48H481.61l21.477 17.095 25.935 21.335-39.835 139.502 125.287-83.146 126.067 82.678-40.187-139.034 47.294-38.625h150.984s17.34 37.297 15.7 70.336c-.563 11.323-1.036 20.538-3.232 31.099-4.247 20.435-13.652 43.762-33.323 69.818 0 0-27.182 37.492-77.64 64.205s-69.36 26.089-130.754 52.489c-10.904 4.688-23.206 10.488-31.321 15.036-16.154 9.053-23.199 15.816-23.199 15.816s-6.874-7.576-24.526-16.715-40.617-19.605-75.219-32.337c0 0-72.25-22.417-103.65-45.537-4.804-3.537-12.043-7.958-18.97-13.189-13.812-10.433-29.168-24.089-41.018-40.394-21.043-28.954-32.337-52.488-35.93-93.729-3.133-35.973 15.388-76.703 15.388-76.703z"/><g fill="#fff"><path d="M52.689 601.215l112.998 7.134 1.77-29.109-47.334-2.969 1.25-18.433-21.714-1.25-1.251 17.966-21.245-1.407 1.406-20.308-22.652-1.562zm16.194-121.251l-9.685 48.115 110.992 22.183 9.92-50.303-22.339-4.217-4.218 21.089-24.213-4.765 3.593-18.199-21.168-4.061-3.593 17.886-20.777-3.983 3.828-19.371zm121.538-58.347s-30.307-13.747-72.797-27.182c0 0-13.279-3.749-22.496 10.311 0 0-4.374 6.249-18.902 46.24l106.072 39.211 16.247-44.054c-.001 0 6.56-17.809-8.124-24.526zm-16.247 34.367l-69.517-25.828s.586-1.363 1.335-2.873c1.153-2.327 3.12-5.005 7.257-3.583 0 0 47.383 16.182 59.832 22.99 4.999 2.733 1.093 9.294 1.093 9.294zm-36.392-138.773l-24.185 42.708 98.57 55.637 25.087-44.713-19.916-10.964-10.574 18.728-21.527-12.066 9.081-16.177-18.851-10.449-8.983 15.879-18.504-10.254 9.668-17.217zm89.272-30.41s5.936-7.733 2.89-14.606-21.828-22.987-33.508-21.584c-8.67 1.042-11.365 4.433-14.138 7.056-5.78 5.468-28.51 34.524-28.51 34.524l88.653 70.142 18.121-23.042-39.992-31.869 5.155-4.14s1.875-.391 5.39 1.875 34.993 27.26 34.993 27.26l17.105-21.324-35.461-27.416c-2.655-1.328-9.294-5.702-20.698 3.124zm-17.497 5.819l-2.617 4.452-19.957-15.855s2.148-2.305 4.14-3.632 4.062-.43 4.062-.43c9.881 6.014 12.38 9.646 13.981 11.287 1.564 1.601.391 4.178.391 4.178zm110.602-15.895l22.261-20.23-88.106-72.875-31.556 28.432 64.283 94.042 22.808-20.386-12.263-16.403 7.811-6.639 14.762 14.059zm-36.477-21.87l-19.942-28.234-6.85-10.118 34.212 31.712-7.42 6.64zm73.344-61.315l24.995-15.778s13.374 20.69 13.669 28.587c.313 8.358-.938 19.293-17.887 30.306-16.077 10.447-27.338 6.717-29.057 6.327s-8.64-2.837-14.84-11.794c-9.139-13.201-26.01-39.289-32.962-52.333s-3.203-21.012-.781-26.557 13.2-17.731 30.462-21.714 26.167 8.982 29.837 13.747 11.716 18.043 11.716 18.043l-24.917 15.543-15.075-23.198s-2.421-4.062-6.639-1.563-1.875 6.561-1.328 7.499 33.174 54.083 36.633 58.269c2.968 3.593 6.17 2.031 7.03 1.406s3.437-2.577 1.484-6.249c-2.019-3.797-12.34-20.541-12.34-20.541zm13.826-84.826l26.713-12.264 46.63 103.182-26.947 12.185zm142.626 44.366c-1.075-7.448-4.511-18.667-7.354-28.35-5.283-17.999-10.767-34.215-10.767-34.215-10.389-27.026-39.992-16.95-39.992-16.95-23.433 7.342-26.557 23.589-24.526 34.837.968 5.359 5.233 20.321 9.435 34.193 4.617 15.242 6.28 21.508 9.155 28.606 8.524 21.045 29.701 18.488 39.784 15.414 9.914-3.024 27.389-11.9 24.265-33.535zm-29.994 15.1c-3.488 1.354-4.895-1.197-5.78-3.801s-19.006-63.373-19.631-66.445.886-5.312 2.656-5.937c0 0 3.854-1.25 5.676 3.177.867 2.104 5.17 16.588 9.492 31.238l9.775 34.373c.416 3.386 1.684 5.893-2.188 7.395zm68.788-48.896l5.363 50.406-24.63 2.76-12.081-112.372 24.474-2.656 21.663 48.271-5.312-49.989 24.318-2.708 12.185 112.268-25.568 2.916zm212.637 54.357s10.649-31.529 19.771-75.15c0 0 2.402-13.586-12.507-21.352 0 0-6.717-3.887-47.898-14.187l-28.413 109.459 43.581 11.138c0 .001 20.25 5.374 25.466-9.908zm-35.819-12.418l18.794-72.348a66.23 66.23 0 0 0 2.992 1.041c2.431.915 5.249 2.891 4.249 7.148 0 0-11.852 48.673-16.583 61.517-1.584 4.298-9.452 2.642-9.452 2.642zm134.481-50.587L818.66 90.841l-45.508 103.636 46.997 20.494 8.918-20.912-19.691-8.65 9.855-22.625 17.003 7.419 8.513-19.801-16.697-7.352 8.354-19.436 18.096 7.9zm105.437 125.941l-13.826 16.403-13.903-11.638-30.619 36.008-22.573-19.136 73.344-86.076 37.804 32.415-14.45 17.184-15.855-13.045-13.513 16.169zm68.033 7.655l-19.294-22.027-66.86 58.269s-19.788 15.387 1.25 42.205c0 0 9.842 14.424 25.932 14.216 0 0 8.592.989 18.902-7.863l64.83-56.03-19.319-22.287-65.924 56.863s-5.44 5.8-8.696 3.697c-3.364-2.174-1.281-5.37.229-6.724l19.298-17.122c12.689-10.552 49.652-43.197 49.652-43.197zm-31.53 149.109l-15.466-25.203 76.858-47.073-9.06-14.84 19.319-11.925 33.795 54.78-19.423 11.873-9.112-14.893zm134.711 27.104c-1.406-11.716-17.262-47.334-17.262-47.334l-104.666 42.647 17.73 42.725c.859 1.406 5.233 12.498 12.575 13.825s11.951-.078 20.152-3.358 18.278-6.17 23.354-13.044c3.978-5.384 1.953-15.465 1.953-15.465 6.157 7.616 9.33 9.275 14.152 8.831 5.515-.508 11.659-2.837 16.076-5.316 3.574-2.006 7.657-4.187 10.443-7.13 4.156-4.39 6.094-11.369 5.493-16.381zm-61.941 10.232c-.469 2.031-1.952 3.203-4.374 4.218s-17.027 7.342-18.979 7.499-4.063.781-7.655-6.717l29.525-11.873s1.952 4.842 1.483 6.873zm39.524-16.246c-.469 2.031-2.082 2.937-4.374 4.218-2.656 1.484-6.483 3.514-13.278 5.233-1.9.48-4.53.781-7.03-6.717l23.198-9.607c-.001-.001 1.952 4.842 1.484 6.873zm-34.506 136.657c7.511-.471 18.969-2.99 28.851-5.041 18.366-3.813 34.974-7.97 34.974-7.97 28.247-8.671 20.123-38.493 20.123-38.493-5.426-23.948-21.367-28.375-32.742-27.259-5.42.532-20.678 3.576-34.843 6.643-15.565 3.371-21.973 4.44-29.253 6.815-21.184 6.911-20.825 28.111-18.575 38.409 2.211 10.128 9.646 28.263 31.465 26.896zm-12.63-31.115c-1.068-3.586 2.213-5.047 4.879-5.719s64.077-13.562 67.189-13.937 5.223 1.311 5.702 3.126c0 0 1.468 3.703-4 5.343-2.18.654-16.575 3.872-31.527 6.996l-35.05 6.967c-3.407.143-6.008 1.204-7.193-2.776zm-8.79 49.191l2.5 47.178 22.728-1.328-1.015-17.809 90.216-4.843-1.641-29.291zm-666.833 548.489s17.264-28.449 35.67-69.035c0 0 5.307-12.736-7.554-23.564 0 0-5.682-5.088-43.655-24.283l-51.583 100.639 41.801 21.385c.001-.001 16.9 8.638 25.321-5.142zm-32.185-20.229l33.935-65.939s1.284.745 2.694 1.668c2.173 1.423 4.597 3.695 2.693 7.633 0 0-21.719 45.114-29.962 56.661-3.312 4.637-9.36-.023-9.36-.023zm136.165-46.091l-46.649-15.255-35.031 107.63 48.794 15.743 6.805-21.69-20.45-6.659 7.568-23.49 17.653 5.701 6.513-20.546-17.342-5.663 6.389-20.168 18.79 6.07zm123.908 82.01h29.994s.938 22.651-3.905 31.035c-3.813 6.601-11.718 16.178-31.592 16.499-19.856.32-26.821-8.552-28.082-9.783s-5.885-7.245-6.494-18.121c-.897-16.03-1.345-46.777-.459-61.531s8.245-19.59 13.206-23.054 20.548-8.45 37.226-2.479c16.144 5.78 17.524 19.423 18.069 26.453.467 5.997.521 22.391.521 22.391l-29.369.104-.403-27.677s.057-4.729-4.846-4.8-4.93 4.621-5.049 5.7c-.22 1.989-.845 51.771.196 68.851.284 4.651 3.94 4.979 5 4.896s4.434-.276 4.687-4.427l1.3-24.057zm72.277-74.828l6.613 39.731-8.487 1.51-6.771-39.783-29.056 4.999 18.799 111.331 29.16-4.948-7.915-46.812 8.592-1.302 7.967 46.813 28.848-4.999-18.85-111.539zm39.367-8.748l28.119-8.957 33.638 108.05-28.223 8.905zm40.773-13.071l27.337-11.872 35.93 82.848 16.351-7.083 9.061 20.673-43.22 19.007zm49.676-22.287l41.97-25.151 11.821 19.423-16.872 10.207 10.988 18.225 15.778-9.582 10.987 18.486-15.621 9.582 12.81 21.297 18.173-11.091 11.664 19.474-43.741 26.089z"/><circle cx="940.055" cy="989.831" r="16.351"/><circle cx="299.148" cy="1016.805" r="16.351"/></g></svg>